<svg width="25" height="23" viewBox="0 0 25 23" fill="none" xmlns="http://www.w3.org/2000/svg">
<path d="M17.474 4L21.3889 7.91493C21.5538 8.07986 21.5538 8.34896 21.3889 8.51389L11.9097 17.9931L7.88194 18.4401C7.34375 18.5009 6.88802 18.0451 6.94879 17.5069L7.39583 13.4792L16.875 4C17.0399 3.83507 17.309 3.83507 17.474 4ZM24.5052 3.00608L22.3872 0.888021C21.7274 0.228299 20.6554 0.228299 19.9913 0.888021L18.4549 2.42448C18.2899 2.58941 18.2899 2.85851 18.4549 3.02344L22.3698 6.93837C22.5347 7.1033 22.8038 7.1033 22.9688 6.93837L24.5052 5.40191C25.1649 4.73785 25.1649 3.6658 24.5052 3.00608ZM16.6667 15.4149V19.8333H2.77778V5.94444H12.7517C12.8906 5.94444 13.0208 5.88802 13.1207 5.79254L14.8568 4.05642C15.1866 3.72656 14.9523 3.16667 14.4878 3.16667H2.08333C0.93316 3.16667 4.76837e-07 4.09983 4.76837e-07 5.25V20.5278C4.76837e-07 21.678 0.93316 22.6111 2.08333 22.6111H17.3611C18.5113 22.6111 19.4444 21.678 19.4444 20.5278V13.6788C19.4444 13.2144 18.8845 12.9844 18.5547 13.3099L16.8186 15.046C16.7231 15.1458 16.6667 15.276 16.6667 15.4149Z" fill="white"/>
</svg>
